<mxfile host="app.diagrams.net" modified="2023-02-03T07:22:29.110Z" agent="5.0 (Windows)" etag="AHnCm-MNHsCeZpHRSwKt" version="20.8.16" type="github">
  <diagram name="Page-1" id="q17JZr7BOtkBDGnWv6Tf">
    <mxGraphModel dx="2718" dy="975" grid="1" gridSize="10" guides="1" tooltips="1" connect="1" arrows="1" fold="1" page="1" pageScale="1" pageWidth="850" pageHeight="1100" math="0" shadow="0">
      <root>
        <mxCell id="0" />
        <mxCell id="1" parent="0" />
        <mxCell id="GZLwMOYqreVESmtrAOhy-2" value="" style="endArrow=classic;html=1;rounded=0;" edge="1" parent="1">
          <mxGeometry width="50" height="50" relative="1" as="geometry">
            <mxPoint x="425" y="160" as="sourcePoint" />
            <mxPoint x="425" y="190" as="targetPoint" />
          </mxGeometry>
        </mxCell>
        <mxCell id="GZLwMOYqreVESmtrAOhy-5" value="Bob leaves his house to go to a park" style="rounded=0;whiteSpace=wrap;html=1;" vertex="1" parent="1">
          <mxGeometry x="365" y="190" width="120" height="60" as="geometry" />
        </mxCell>
        <mxCell id="GZLwMOYqreVESmtrAOhy-6" value="" style="endArrow=classic;html=1;rounded=0;" edge="1" parent="1">
          <mxGeometry width="50" height="50" relative="1" as="geometry">
            <mxPoint x="470" y="330" as="sourcePoint" />
            <mxPoint x="570" y="330" as="targetPoint" />
          </mxGeometry>
        </mxCell>
        <mxCell id="GZLwMOYqreVESmtrAOhy-8" value="Drive car" style="text;strokeColor=none;align=center;fillColor=none;html=1;verticalAlign=middle;whiteSpace=wrap;rounded=0;" vertex="1" parent="1">
          <mxGeometry x="490" y="300" width="60" height="30" as="geometry" />
        </mxCell>
        <mxCell id="GZLwMOYqreVESmtrAOhy-9" value="Walk" style="text;strokeColor=none;align=center;fillColor=none;html=1;verticalAlign=middle;whiteSpace=wrap;rounded=0;" vertex="1" parent="1">
          <mxGeometry x="300" y="300" width="60" height="30" as="geometry" />
        </mxCell>
        <mxCell id="GZLwMOYqreVESmtrAOhy-10" value="Bob can walk or drive his car" style="shape=parallelogram;perimeter=parallelogramPerimeter;whiteSpace=wrap;html=1;fixedSize=1;" vertex="1" parent="1">
          <mxGeometry x="360" y="300" width="120" height="60" as="geometry" />
        </mxCell>
        <mxCell id="GZLwMOYqreVESmtrAOhy-11" value="Bob spots money while walking&amp;nbsp; " style="rounded=0;whiteSpace=wrap;html=1;" vertex="1" parent="1">
          <mxGeometry x="160" y="300" width="120" height="60" as="geometry" />
        </mxCell>
        <mxCell id="GZLwMOYqreVESmtrAOhy-12" value="Bob can go for the money or go to the park" style="shape=parallelogram;perimeter=parallelogramPerimeter;whiteSpace=wrap;html=1;fixedSize=1;" vertex="1" parent="1">
          <mxGeometry x="160" y="400" width="120" height="60" as="geometry" />
        </mxCell>
        <mxCell id="GZLwMOYqreVESmtrAOhy-13" value="A car runs Bob over and game is over" style="rounded=0;whiteSpace=wrap;html=1;" vertex="1" parent="1">
          <mxGeometry x="-30" y="400" width="120" height="60" as="geometry" />
        </mxCell>
        <mxCell id="GZLwMOYqreVESmtrAOhy-14" value="Game over" style="rounded=1;whiteSpace=wrap;html=1;" vertex="1" parent="1">
          <mxGeometry x="-30" y="500" width="120" height="60" as="geometry" />
        </mxCell>
        <mxCell id="GZLwMOYqreVESmtrAOhy-15" value="Bob arrives at a fork in the road" style="rounded=0;whiteSpace=wrap;html=1;" vertex="1" parent="1">
          <mxGeometry x="350" y="400" width="120" height="60" as="geometry" />
        </mxCell>
        <mxCell id="GZLwMOYqreVESmtrAOhy-16" value="Flip a coin" style="shape=parallelogram;perimeter=parallelogramPerimeter;whiteSpace=wrap;html=1;fixedSize=1;" vertex="1" parent="1">
          <mxGeometry x="350" y="500" width="120" height="60" as="geometry" />
        </mxCell>
        <mxCell id="GZLwMOYqreVESmtrAOhy-17" value="Heads?" style="rhombus;whiteSpace=wrap;html=1;" vertex="1" parent="1">
          <mxGeometry x="370" y="600" width="80" height="80" as="geometry" />
        </mxCell>
        <mxCell id="GZLwMOYqreVESmtrAOhy-18" value="Bob finds his dad and wins " style="rounded=0;whiteSpace=wrap;html=1;" vertex="1" parent="1">
          <mxGeometry x="200" y="610" width="120" height="60" as="geometry" />
        </mxCell>
        <mxCell id="GZLwMOYqreVESmtrAOhy-19" value="Bob dies after stepping on a landmine" style="rounded=0;whiteSpace=wrap;html=1;" vertex="1" parent="1">
          <mxGeometry x="460" y="680" width="120" height="60" as="geometry" />
        </mxCell>
        <mxCell id="GZLwMOYqreVESmtrAOhy-20" value="Bob gets in his car but it doesn&#39;t work" style="rounded=0;whiteSpace=wrap;html=1;" vertex="1" parent="1">
          <mxGeometry x="570" y="300" width="120" height="60" as="geometry" />
        </mxCell>
        <mxCell id="GZLwMOYqreVESmtrAOhy-72" value="" style="edgeStyle=orthogonalEdgeStyle;rounded=0;orthogonalLoop=1;jettySize=auto;html=1;" edge="1" parent="1" source="GZLwMOYqreVESmtrAOhy-21" target="GZLwMOYqreVESmtrAOhy-20">
          <mxGeometry relative="1" as="geometry" />
        </mxCell>
        <mxCell id="GZLwMOYqreVESmtrAOhy-21" value="Bob can fix his car or walk to park" style="shape=parallelogram;perimeter=parallelogramPerimeter;whiteSpace=wrap;html=1;fixedSize=1;" vertex="1" parent="1">
          <mxGeometry x="570" y="400" width="120" height="60" as="geometry" />
        </mxCell>
        <mxCell id="GZLwMOYqreVESmtrAOhy-23" value="Bob fixes his car and sees his friends" style="rounded=0;whiteSpace=wrap;html=1;" vertex="1" parent="1">
          <mxGeometry x="570" y="500" width="120" height="60" as="geometry" />
        </mxCell>
        <mxCell id="GZLwMOYqreVESmtrAOhy-25" value="Bob has a choice of picking them up or not" style="shape=parallelogram;perimeter=parallelogramPerimeter;whiteSpace=wrap;html=1;fixedSize=1;" vertex="1" parent="1">
          <mxGeometry x="730" y="500" width="120" height="60" as="geometry" />
        </mxCell>
        <mxCell id="GZLwMOYqreVESmtrAOhy-26" value="Bob has no friends and becomes severely depressed" style="rounded=0;whiteSpace=wrap;html=1;" vertex="1" parent="1">
          <mxGeometry x="730" y="600" width="120" height="60" as="geometry" />
        </mxCell>
        <mxCell id="GZLwMOYqreVESmtrAOhy-27" value="Game over" style="rounded=1;whiteSpace=wrap;html=1;" vertex="1" parent="1">
          <mxGeometry x="1200" y="320" width="120" height="60" as="geometry" />
        </mxCell>
        <mxCell id="GZLwMOYqreVESmtrAOhy-28" value="Bob&#39;s car crashes into his grandma&#39;s house" style="rounded=0;whiteSpace=wrap;html=1;" vertex="1" parent="1">
          <mxGeometry x="920" y="500" width="120" height="60" as="geometry" />
        </mxCell>
        <mxCell id="GZLwMOYqreVESmtrAOhy-29" value="Roll a die" style="shape=parallelogram;perimeter=parallelogramPerimeter;whiteSpace=wrap;html=1;fixedSize=1;" vertex="1" parent="1">
          <mxGeometry x="1080" y="500" width="120" height="60" as="geometry" />
        </mxCell>
        <mxCell id="GZLwMOYqreVESmtrAOhy-30" value="Is the roll greater than 3?" style="rhombus;whiteSpace=wrap;html=1;" vertex="1" parent="1">
          <mxGeometry x="1100" y="600" width="80" height="80" as="geometry" />
        </mxCell>
        <mxCell id="GZLwMOYqreVESmtrAOhy-31" value="Bob dies on a stretcher later" style="rounded=0;whiteSpace=wrap;html=1;" vertex="1" parent="1">
          <mxGeometry x="910" y="610" width="120" height="60" as="geometry" />
        </mxCell>
        <mxCell id="GZLwMOYqreVESmtrAOhy-32" value="Bob dies on the spot" style="rounded=0;whiteSpace=wrap;html=1;" vertex="1" parent="1">
          <mxGeometry x="1080" y="730" width="120" height="60" as="geometry" />
        </mxCell>
        <mxCell id="GZLwMOYqreVESmtrAOhy-33" value="Game over" style="rounded=1;whiteSpace=wrap;html=1;" vertex="1" parent="1">
          <mxGeometry x="910" y="710" width="120" height="60" as="geometry" />
        </mxCell>
        <mxCell id="GZLwMOYqreVESmtrAOhy-35" value="Bob walks to the park and sees his first grade teacher." style="rounded=0;whiteSpace=wrap;html=1;" vertex="1" parent="1">
          <mxGeometry x="730" y="400" width="120" height="60" as="geometry" />
        </mxCell>
        <mxCell id="GZLwMOYqreVESmtrAOhy-37" value="Bob has a choice of talking to him or not" style="shape=parallelogram;perimeter=parallelogramPerimeter;whiteSpace=wrap;html=1;fixedSize=1;" vertex="1" parent="1">
          <mxGeometry x="890" y="400" width="120" height="60" as="geometry" />
        </mxCell>
        <mxCell id="GZLwMOYqreVESmtrAOhy-38" value="It was not his teacher and Bob dies from embarrassment. " style="rounded=0;whiteSpace=wrap;html=1;" vertex="1" parent="1">
          <mxGeometry x="1030" y="320" width="120" height="60" as="geometry" />
        </mxCell>
        <mxCell id="GZLwMOYqreVESmtrAOhy-40" value="Bob continues to the park and spots a monkey" style="rounded=0;whiteSpace=wrap;html=1;" vertex="1" parent="1">
          <mxGeometry x="1070" y="400" width="120" height="60" as="geometry" />
        </mxCell>
        <mxCell id="GZLwMOYqreVESmtrAOhy-41" value="Bob can catch it or not " style="shape=parallelogram;perimeter=parallelogramPerimeter;whiteSpace=wrap;html=1;fixedSize=1;" vertex="1" parent="1">
          <mxGeometry x="1230" y="400" width="120" height="60" as="geometry" />
        </mxCell>
        <mxCell id="GZLwMOYqreVESmtrAOhy-43" value="&lt;p id=&quot;docs-internal-guid-9172811a-7fff-5d0f-05af-e214e81e0051&quot; style=&quot;line-height:1.2;text-align: center;margin-top:0pt;margin-bottom:0pt;&quot; dir=&quot;ltr&quot;&gt;The monkey breaks the windshield of his car and attacks him.&lt;/p&gt;" style="rounded=0;whiteSpace=wrap;html=1;" vertex="1" parent="1">
          <mxGeometry x="1230" y="510" width="120" height="60" as="geometry" />
        </mxCell>
        <mxCell id="GZLwMOYqreVESmtrAOhy-44" value="It starts raining so the monkey runs away and Bob is soaked " style="rounded=0;whiteSpace=wrap;html=1;" vertex="1" parent="1">
          <mxGeometry x="1390" y="400" width="120" height="60" as="geometry" />
        </mxCell>
        <mxCell id="GZLwMOYqreVESmtrAOhy-46" value="Bob has a choice of hiding under a tree or not " style="shape=parallelogram;perimeter=parallelogramPerimeter;whiteSpace=wrap;html=1;fixedSize=1;" vertex="1" parent="1">
          <mxGeometry x="1390" y="510" width="120" height="60" as="geometry" />
        </mxCell>
        <mxCell id="GZLwMOYqreVESmtrAOhy-47" value="&lt;p id=&quot;docs-internal-guid-6fce6a90-7fff-37b9-829a-bd02a41d91af&quot; style=&quot;line-height:1.2;text-align: center;margin-top:0pt;margin-bottom:0pt;&quot; dir=&quot;ltr&quot;&gt;Lightning strikes the tree and Bob dies immediately.&lt;br&gt;&lt;/p&gt;" style="rounded=0;whiteSpace=wrap;html=1;" vertex="1" parent="1">
          <mxGeometry x="1390" y="640" width="120" height="60" as="geometry" />
        </mxCell>
        <mxCell id="GZLwMOYqreVESmtrAOhy-48" value="&lt;p id=&quot;docs-internal-guid-2a1beaf8-7fff-86da-baf7-0c924946167a&quot; style=&quot;line-height:1.2;text-align: center;margin-top:0pt;margin-bottom:0pt;&quot; dir=&quot;ltr&quot;&gt;Bob dies from getting beaten by bandits and not being able to move in the rain.&lt;/p&gt;" style="rounded=0;whiteSpace=wrap;html=1;" vertex="1" parent="1">
          <mxGeometry x="1550" y="510" width="120" height="60" as="geometry" />
        </mxCell>
        <mxCell id="GZLwMOYqreVESmtrAOhy-50" value="Game over" style="rounded=1;whiteSpace=wrap;html=1;" vertex="1" parent="1">
          <mxGeometry x="1550" y="620" width="120" height="60" as="geometry" />
        </mxCell>
        <mxCell id="GZLwMOYqreVESmtrAOhy-51" value="Game over" style="rounded=1;whiteSpace=wrap;html=1;" vertex="1" parent="1">
          <mxGeometry x="1230" y="620" width="120" height="60" as="geometry" />
        </mxCell>
        <mxCell id="GZLwMOYqreVESmtrAOhy-52" value="" style="endArrow=classic;html=1;rounded=0;" edge="1" parent="1">
          <mxGeometry width="50" height="50" relative="1" as="geometry">
            <mxPoint x="219.71" y="360" as="sourcePoint" />
            <mxPoint x="219.71" y="400" as="targetPoint" />
          </mxGeometry>
        </mxCell>
        <mxCell id="GZLwMOYqreVESmtrAOhy-53" value="" style="endArrow=classic;html=1;rounded=0;" edge="1" parent="1">
          <mxGeometry width="50" height="50" relative="1" as="geometry">
            <mxPoint x="424" y="250" as="sourcePoint" />
            <mxPoint x="424" y="300" as="targetPoint" />
          </mxGeometry>
        </mxCell>
        <mxCell id="GZLwMOYqreVESmtrAOhy-55" value="" style="endArrow=classic;html=1;rounded=0;exitX=0;exitY=0.5;exitDx=0;exitDy=0;" edge="1" parent="1" source="GZLwMOYqreVESmtrAOhy-10">
          <mxGeometry width="50" height="50" relative="1" as="geometry">
            <mxPoint x="365" y="330.31" as="sourcePoint" />
            <mxPoint x="280" y="330" as="targetPoint" />
          </mxGeometry>
        </mxCell>
        <mxCell id="GZLwMOYqreVESmtrAOhy-56" value="" style="endArrow=classic;html=1;rounded=0;" edge="1" parent="1">
          <mxGeometry width="50" height="50" relative="1" as="geometry">
            <mxPoint x="170" y="429.58" as="sourcePoint" />
            <mxPoint x="90" y="430" as="targetPoint" />
          </mxGeometry>
        </mxCell>
        <mxCell id="GZLwMOYqreVESmtrAOhy-59" value="" style="endArrow=classic;html=1;rounded=0;" edge="1" parent="1">
          <mxGeometry width="50" height="50" relative="1" as="geometry">
            <mxPoint x="270" y="429.58" as="sourcePoint" />
            <mxPoint x="350" y="430" as="targetPoint" />
          </mxGeometry>
        </mxCell>
        <mxCell id="GZLwMOYqreVESmtrAOhy-60" value="" style="endArrow=classic;html=1;rounded=0;" edge="1" parent="1">
          <mxGeometry width="50" height="50" relative="1" as="geometry">
            <mxPoint x="29.58" y="460" as="sourcePoint" />
            <mxPoint x="30" y="500" as="targetPoint" />
          </mxGeometry>
        </mxCell>
        <mxCell id="GZLwMOYqreVESmtrAOhy-62" value="" style="endArrow=classic;html=1;rounded=0;" edge="1" parent="1">
          <mxGeometry width="50" height="50" relative="1" as="geometry">
            <mxPoint x="409.9999999999997" y="460" as="sourcePoint" />
            <mxPoint x="410.42" y="500" as="targetPoint" />
          </mxGeometry>
        </mxCell>
        <mxCell id="GZLwMOYqreVESmtrAOhy-63" value="" style="endArrow=classic;html=1;rounded=0;" edge="1" parent="1">
          <mxGeometry width="50" height="50" relative="1" as="geometry">
            <mxPoint x="409.16999999999956" y="560" as="sourcePoint" />
            <mxPoint x="409.5900000000001" y="600" as="targetPoint" />
          </mxGeometry>
        </mxCell>
        <mxCell id="GZLwMOYqreVESmtrAOhy-64" value="" style="endArrow=classic;html=1;rounded=0;" edge="1" parent="1">
          <mxGeometry width="50" height="50" relative="1" as="geometry">
            <mxPoint x="369.99999999999955" y="639.58" as="sourcePoint" />
            <mxPoint x="320" y="639.58" as="targetPoint" />
          </mxGeometry>
        </mxCell>
        <mxCell id="GZLwMOYqreVESmtrAOhy-66" value="" style="endArrow=classic;html=1;rounded=0;" edge="1" parent="1">
          <mxGeometry width="50" height="50" relative="1" as="geometry">
            <mxPoint x="259.5799999999997" y="670" as="sourcePoint" />
            <mxPoint x="260" y="710" as="targetPoint" />
          </mxGeometry>
        </mxCell>
        <mxCell id="GZLwMOYqreVESmtrAOhy-67" value="Game over" style="rounded=1;whiteSpace=wrap;html=1;" vertex="1" parent="1">
          <mxGeometry x="200" y="710" width="120" height="60" as="geometry" />
        </mxCell>
        <mxCell id="GZLwMOYqreVESmtrAOhy-68" value="Game over" style="rounded=1;whiteSpace=wrap;html=1;" vertex="1" parent="1">
          <mxGeometry x="480" y="780" width="120" height="60" as="geometry" />
        </mxCell>
        <mxCell id="GZLwMOYqreVESmtrAOhy-69" value="" style="endArrow=classic;html=1;rounded=0;" edge="1" parent="1">
          <mxGeometry width="50" height="50" relative="1" as="geometry">
            <mxPoint x="539.5799999999996" y="740" as="sourcePoint" />
            <mxPoint x="540.0000000000001" y="780" as="targetPoint" />
          </mxGeometry>
        </mxCell>
        <mxCell id="GZLwMOYqreVESmtrAOhy-71" value="" style="endArrow=classic;html=1;rounded=0;" edge="1" parent="1">
          <mxGeometry width="50" height="50" relative="1" as="geometry">
            <mxPoint x="629.5799999999996" y="360" as="sourcePoint" />
            <mxPoint x="630.0000000000001" y="400" as="targetPoint" />
          </mxGeometry>
        </mxCell>
        <mxCell id="GZLwMOYqreVESmtrAOhy-73" value="" style="endArrow=classic;html=1;rounded=0;" edge="1" parent="1">
          <mxGeometry width="50" height="50" relative="1" as="geometry">
            <mxPoint x="629.5799999999995" y="460" as="sourcePoint" />
            <mxPoint x="630" y="500" as="targetPoint" />
          </mxGeometry>
        </mxCell>
        <mxCell id="GZLwMOYqreVESmtrAOhy-75" value="" style="endArrow=classic;html=1;rounded=0;" edge="1" parent="1">
          <mxGeometry width="50" height="50" relative="1" as="geometry">
            <mxPoint x="679.9999999999995" y="429.58" as="sourcePoint" />
            <mxPoint x="730" y="430.00000000000006" as="targetPoint" />
          </mxGeometry>
        </mxCell>
        <mxCell id="GZLwMOYqreVESmtrAOhy-76" value="" style="endArrow=classic;html=1;rounded=0;" edge="1" parent="1">
          <mxGeometry width="50" height="50" relative="1" as="geometry">
            <mxPoint x="849.9999999999995" y="429.5799999999999" as="sourcePoint" />
            <mxPoint x="900" y="430" as="targetPoint" />
          </mxGeometry>
        </mxCell>
        <mxCell id="GZLwMOYqreVESmtrAOhy-77" value="" style="endArrow=classic;html=1;rounded=0;" edge="1" parent="1">
          <mxGeometry width="50" height="50" relative="1" as="geometry">
            <mxPoint x="1449.58" y="570" as="sourcePoint" />
            <mxPoint x="1449.58" y="640" as="targetPoint" />
          </mxGeometry>
        </mxCell>
        <mxCell id="GZLwMOYqreVESmtrAOhy-79" value="" style="endArrow=classic;html=1;rounded=0;exitX=1;exitY=0.5;exitDx=0;exitDy=0;" edge="1" parent="1" source="GZLwMOYqreVESmtrAOhy-23" target="GZLwMOYqreVESmtrAOhy-25">
          <mxGeometry width="50" height="50" relative="1" as="geometry">
            <mxPoint x="629.58" y="560" as="sourcePoint" />
            <mxPoint x="640" y="600" as="targetPoint" />
          </mxGeometry>
        </mxCell>
        <mxCell id="GZLwMOYqreVESmtrAOhy-84" value="" style="endArrow=classic;html=1;rounded=0;" edge="1" parent="1">
          <mxGeometry width="50" height="50" relative="1" as="geometry">
            <mxPoint x="450" y="640" as="sourcePoint" />
            <mxPoint x="520" y="680" as="targetPoint" />
            <Array as="points">
              <mxPoint x="520" y="640" />
              <mxPoint x="520" y="660" />
            </Array>
          </mxGeometry>
        </mxCell>
        <mxCell id="GZLwMOYqreVESmtrAOhy-87" value="" style="endArrow=classic;html=1;rounded=0;" edge="1" parent="1">
          <mxGeometry width="50" height="50" relative="1" as="geometry">
            <mxPoint x="789.58" y="560" as="sourcePoint" />
            <mxPoint x="790" y="600" as="targetPoint" />
          </mxGeometry>
        </mxCell>
        <mxCell id="GZLwMOYqreVESmtrAOhy-88" value="Game over" style="rounded=1;whiteSpace=wrap;html=1;" vertex="1" parent="1">
          <mxGeometry x="730" y="700" width="120" height="60" as="geometry" />
        </mxCell>
        <mxCell id="GZLwMOYqreVESmtrAOhy-89" value="" style="endArrow=classic;html=1;rounded=0;" edge="1" parent="1">
          <mxGeometry width="50" height="50" relative="1" as="geometry">
            <mxPoint x="789.5799999999995" y="660" as="sourcePoint" />
            <mxPoint x="790" y="700" as="targetPoint" />
          </mxGeometry>
        </mxCell>
        <mxCell id="GZLwMOYqreVESmtrAOhy-92" value="" style="endArrow=classic;html=1;rounded=0;exitX=1;exitY=0.5;exitDx=0;exitDy=0;" edge="1" parent="1" source="GZLwMOYqreVESmtrAOhy-25">
          <mxGeometry width="50" height="50" relative="1" as="geometry">
            <mxPoint x="890" y="530" as="sourcePoint" />
            <mxPoint x="920" y="530" as="targetPoint" />
          </mxGeometry>
        </mxCell>
        <mxCell id="GZLwMOYqreVESmtrAOhy-93" value="" style="endArrow=classic;html=1;rounded=0;" edge="1" parent="1">
          <mxGeometry width="50" height="50" relative="1" as="geometry">
            <mxPoint x="1139.71" y="560" as="sourcePoint" />
            <mxPoint x="1140.13" y="600" as="targetPoint" />
          </mxGeometry>
        </mxCell>
        <mxCell id="GZLwMOYqreVESmtrAOhy-94" value="" style="endArrow=classic;html=1;rounded=0;" edge="1" parent="1">
          <mxGeometry width="50" height="50" relative="1" as="geometry">
            <mxPoint x="1100" y="639.6" as="sourcePoint" />
            <mxPoint x="1030" y="640" as="targetPoint" />
          </mxGeometry>
        </mxCell>
        <mxCell id="GZLwMOYqreVESmtrAOhy-95" value="" style="endArrow=classic;html=1;rounded=0;exitX=1;exitY=0.5;exitDx=0;exitDy=0;" edge="1" parent="1">
          <mxGeometry width="50" height="50" relative="1" as="geometry">
            <mxPoint x="1040" y="529.58" as="sourcePoint" />
            <mxPoint x="1090" y="529.58" as="targetPoint" />
          </mxGeometry>
        </mxCell>
        <mxCell id="GZLwMOYqreVESmtrAOhy-96" value="" style="endArrow=classic;html=1;rounded=0;exitX=1;exitY=0.5;exitDx=0;exitDy=0;" edge="1" parent="1">
          <mxGeometry width="50" height="50" relative="1" as="geometry">
            <mxPoint x="1139.8" y="680" as="sourcePoint" />
            <mxPoint x="1139.8" y="730" as="targetPoint" />
          </mxGeometry>
        </mxCell>
        <mxCell id="GZLwMOYqreVESmtrAOhy-97" value="" style="endArrow=classic;html=1;rounded=0;" edge="1" parent="1">
          <mxGeometry width="50" height="50" relative="1" as="geometry">
            <mxPoint x="969.43" y="670" as="sourcePoint" />
            <mxPoint x="969.85" y="710" as="targetPoint" />
          </mxGeometry>
        </mxCell>
        <mxCell id="GZLwMOYqreVESmtrAOhy-98" value="" style="endArrow=classic;html=1;rounded=0;exitX=0.5;exitY=0;exitDx=0;exitDy=0;" edge="1" parent="1" source="GZLwMOYqreVESmtrAOhy-37">
          <mxGeometry width="50" height="50" relative="1" as="geometry">
            <mxPoint x="1009.9999999999995" y="399.1699999999999" as="sourcePoint" />
            <mxPoint x="1030" y="350" as="targetPoint" />
            <Array as="points">
              <mxPoint x="950" y="350" />
            </Array>
          </mxGeometry>
        </mxCell>
        <mxCell id="GZLwMOYqreVESmtrAOhy-100" value="Game over" style="rounded=1;whiteSpace=wrap;html=1;" vertex="1" parent="1">
          <mxGeometry x="1390" y="750" width="120" height="60" as="geometry" />
        </mxCell>
        <mxCell id="GZLwMOYqreVESmtrAOhy-101" value="" style="endArrow=classic;html=1;rounded=0;" edge="1" parent="1">
          <mxGeometry width="50" height="50" relative="1" as="geometry">
            <mxPoint x="1149.9999999999995" y="349.5799999999999" as="sourcePoint" />
            <mxPoint x="1200" y="350" as="targetPoint" />
          </mxGeometry>
        </mxCell>
        <mxCell id="GZLwMOYqreVESmtrAOhy-102" value="" style="endArrow=classic;html=1;rounded=0;" edge="1" parent="1">
          <mxGeometry width="50" height="50" relative="1" as="geometry">
            <mxPoint x="1000" y="429.58000000000004" as="sourcePoint" />
            <mxPoint x="1070" y="429.58000000000004" as="targetPoint" />
          </mxGeometry>
        </mxCell>
        <mxCell id="GZLwMOYqreVESmtrAOhy-103" value="" style="endArrow=classic;html=1;rounded=0;" edge="1" parent="1">
          <mxGeometry width="50" height="50" relative="1" as="geometry">
            <mxPoint x="1189.9999999999995" y="429.5799999999999" as="sourcePoint" />
            <mxPoint x="1240" y="430" as="targetPoint" />
          </mxGeometry>
        </mxCell>
        <mxCell id="GZLwMOYqreVESmtrAOhy-104" value="" style="endArrow=classic;html=1;rounded=0;entryX=0.5;entryY=0;entryDx=0;entryDy=0;" edge="1" parent="1" target="GZLwMOYqreVESmtrAOhy-43">
          <mxGeometry width="50" height="50" relative="1" as="geometry">
            <mxPoint x="1290" y="460" as="sourcePoint" />
            <mxPoint x="1289.58" y="530" as="targetPoint" />
          </mxGeometry>
        </mxCell>
        <mxCell id="GZLwMOYqreVESmtrAOhy-105" value="" style="endArrow=classic;html=1;rounded=0;entryX=0.5;entryY=0;entryDx=0;entryDy=0;" edge="1" parent="1">
          <mxGeometry width="50" height="50" relative="1" as="geometry">
            <mxPoint x="1289.58" y="570" as="sourcePoint" />
            <mxPoint x="1289.58" y="620" as="targetPoint" />
          </mxGeometry>
        </mxCell>
        <mxCell id="GZLwMOYqreVESmtrAOhy-106" value="" style="endArrow=classic;html=1;rounded=0;" edge="1" parent="1">
          <mxGeometry width="50" height="50" relative="1" as="geometry">
            <mxPoint x="1339.9999999999995" y="429.5799999999999" as="sourcePoint" />
            <mxPoint x="1390" y="430" as="targetPoint" />
          </mxGeometry>
        </mxCell>
        <mxCell id="GZLwMOYqreVESmtrAOhy-107" value="" style="endArrow=classic;html=1;rounded=0;entryX=0.5;entryY=0;entryDx=0;entryDy=0;" edge="1" parent="1">
          <mxGeometry width="50" height="50" relative="1" as="geometry">
            <mxPoint x="1449.58" y="460" as="sourcePoint" />
            <mxPoint x="1449.58" y="510" as="targetPoint" />
          </mxGeometry>
        </mxCell>
        <mxCell id="GZLwMOYqreVESmtrAOhy-108" value="" style="endArrow=classic;html=1;rounded=0;" edge="1" parent="1">
          <mxGeometry width="50" height="50" relative="1" as="geometry">
            <mxPoint x="1499.9999999999995" y="539.5799999999998" as="sourcePoint" />
            <mxPoint x="1550" y="540" as="targetPoint" />
          </mxGeometry>
        </mxCell>
        <mxCell id="GZLwMOYqreVESmtrAOhy-109" value="" style="endArrow=classic;html=1;rounded=0;entryX=0.5;entryY=0;entryDx=0;entryDy=0;" edge="1" parent="1">
          <mxGeometry width="50" height="50" relative="1" as="geometry">
            <mxPoint x="1609.58" y="570" as="sourcePoint" />
            <mxPoint x="1609.58" y="620" as="targetPoint" />
          </mxGeometry>
        </mxCell>
        <mxCell id="GZLwMOYqreVESmtrAOhy-110" value="" style="endArrow=classic;html=1;rounded=0;entryX=0.5;entryY=0;entryDx=0;entryDy=0;" edge="1" parent="1">
          <mxGeometry width="50" height="50" relative="1" as="geometry">
            <mxPoint x="1449.58" y="700" as="sourcePoint" />
            <mxPoint x="1449.58" y="750" as="targetPoint" />
          </mxGeometry>
        </mxCell>
        <mxCell id="GZLwMOYqreVESmtrAOhy-113" value="money" style="text;html=1;strokeColor=none;fillColor=none;align=center;verticalAlign=middle;whiteSpace=wrap;rounded=0;" vertex="1" parent="1">
          <mxGeometry x="110" y="400" width="60" height="30" as="geometry" />
        </mxCell>
        <mxCell id="GZLwMOYqreVESmtrAOhy-114" value="park" style="text;html=1;strokeColor=none;fillColor=none;align=center;verticalAlign=middle;whiteSpace=wrap;rounded=0;" vertex="1" parent="1">
          <mxGeometry x="280" y="400" width="60" height="30" as="geometry" />
        </mxCell>
        <mxCell id="GZLwMOYqreVESmtrAOhy-115" value="start" style="rounded=1;whiteSpace=wrap;html=1;" vertex="1" parent="1">
          <mxGeometry x="365" y="100" width="120" height="60" as="geometry" />
        </mxCell>
        <mxCell id="GZLwMOYqreVESmtrAOhy-116" value="yes" style="text;html=1;strokeColor=none;fillColor=none;align=center;verticalAlign=middle;whiteSpace=wrap;rounded=0;" vertex="1" parent="1">
          <mxGeometry x="320" y="610" width="60" height="30" as="geometry" />
        </mxCell>
        <mxCell id="GZLwMOYqreVESmtrAOhy-117" value="no" style="text;html=1;strokeColor=none;fillColor=none;align=center;verticalAlign=middle;whiteSpace=wrap;rounded=0;" vertex="1" parent="1">
          <mxGeometry x="450" y="610" width="60" height="30" as="geometry" />
        </mxCell>
        <mxCell id="GZLwMOYqreVESmtrAOhy-118" value="fix" style="text;html=1;strokeColor=none;fillColor=none;align=center;verticalAlign=middle;whiteSpace=wrap;rounded=0;" vertex="1" parent="1">
          <mxGeometry x="570" y="460" width="60" height="30" as="geometry" />
        </mxCell>
        <mxCell id="GZLwMOYqreVESmtrAOhy-120" value="park" style="text;html=1;strokeColor=none;fillColor=none;align=center;verticalAlign=middle;whiteSpace=wrap;rounded=0;" vertex="1" parent="1">
          <mxGeometry x="680" y="400" width="60" height="30" as="geometry" />
        </mxCell>
        <mxCell id="GZLwMOYqreVESmtrAOhy-121" value="no" style="text;html=1;strokeColor=none;fillColor=none;align=center;verticalAlign=middle;whiteSpace=wrap;rounded=0;" vertex="1" parent="1">
          <mxGeometry x="850" y="500" width="60" height="30" as="geometry" />
        </mxCell>
        <mxCell id="GZLwMOYqreVESmtrAOhy-122" value="yes" style="text;html=1;strokeColor=none;fillColor=none;align=center;verticalAlign=middle;whiteSpace=wrap;rounded=0;" vertex="1" parent="1">
          <mxGeometry x="790" y="560" width="60" height="30" as="geometry" />
        </mxCell>
        <mxCell id="GZLwMOYqreVESmtrAOhy-123" value="yes" style="text;html=1;strokeColor=none;fillColor=none;align=center;verticalAlign=middle;whiteSpace=wrap;rounded=0;" vertex="1" parent="1">
          <mxGeometry x="950" y="360" width="60" height="30" as="geometry" />
        </mxCell>
        <mxCell id="GZLwMOYqreVESmtrAOhy-124" value="no" style="text;html=1;strokeColor=none;fillColor=none;align=center;verticalAlign=middle;whiteSpace=wrap;rounded=0;" vertex="1" parent="1">
          <mxGeometry x="1000" y="430" width="60" height="30" as="geometry" />
        </mxCell>
        <mxCell id="GZLwMOYqreVESmtrAOhy-125" value="yes" style="text;html=1;strokeColor=none;fillColor=none;align=center;verticalAlign=middle;whiteSpace=wrap;rounded=0;" vertex="1" parent="1">
          <mxGeometry x="1040" y="610" width="60" height="30" as="geometry" />
        </mxCell>
        <mxCell id="GZLwMOYqreVESmtrAOhy-126" value="no" style="text;html=1;strokeColor=none;fillColor=none;align=center;verticalAlign=middle;whiteSpace=wrap;rounded=0;" vertex="1" parent="1">
          <mxGeometry x="1140" y="680" width="60" height="30" as="geometry" />
        </mxCell>
        <mxCell id="GZLwMOYqreVESmtrAOhy-127" value="no" style="text;html=1;strokeColor=none;fillColor=none;align=center;verticalAlign=middle;whiteSpace=wrap;rounded=0;" vertex="1" parent="1">
          <mxGeometry x="1340" y="400" width="60" height="30" as="geometry" />
        </mxCell>
        <mxCell id="GZLwMOYqreVESmtrAOhy-128" value="no" style="text;html=1;strokeColor=none;fillColor=none;align=center;verticalAlign=middle;whiteSpace=wrap;rounded=0;" vertex="1" parent="1">
          <mxGeometry x="1500" y="510" width="60" height="30" as="geometry" />
        </mxCell>
        <mxCell id="GZLwMOYqreVESmtrAOhy-129" value="yes" style="text;html=1;strokeColor=none;fillColor=none;align=center;verticalAlign=middle;whiteSpace=wrap;rounded=0;" vertex="1" parent="1">
          <mxGeometry x="1440" y="590" width="60" height="30" as="geometry" />
        </mxCell>
        <mxCell id="GZLwMOYqreVESmtrAOhy-130" value="yes" style="text;html=1;strokeColor=none;fillColor=none;align=center;verticalAlign=middle;whiteSpace=wrap;rounded=0;" vertex="1" parent="1">
          <mxGeometry x="1290" y="470" width="60" height="30" as="geometry" />
        </mxCell>
      </root>
    </mxGraphModel>
  </diagram>
</mxfile>
